<?xml version="1.0" encoding="utf-8"?>
<!-- Generator: Adobe Illustrator 16.0.0, SVG Export Plug-In . SVG Version: 6.00 Build 0)  -->
<!DOCTYPE svg PUBLIC "-//W3C//DTD SVG 1.1//EN" "http://www.w3.org/Graphics/SVG/1.1/DTD/svg11.dtd">
<svg version="1.1" id="Layer_1" xmlns="http://www.w3.org/2000/svg" xmlns:xlink="http://www.w3.org/1999/xlink" x="0px" y="0px"
	 width="494px" height="130px" viewBox="0 0 494 130" enable-background="new 0 0 494 130" xml:space="preserve">
<rect x="-4.113" y="-0.089" width="226" height="130"/>
<g>
	<path fill="#FFFFFF" d="M-0.028,20.15V6.542h55.08V20.15h-19.44v103.356h-16.2V20.15H-0.028z"/>
	<path fill="#FFFFFF" d="M61.044,123.506V6.542h16.2v116.964H61.044z"/>
	<path fill="#FFFFFF" d="M84.696,123.506V6.542h25.758l14.904,89.1h0.324l14.904-89.1h25.11v116.964h-15.228v-105.3l-16.734,105.3
		h-16.407l-18.375-105.3v105.3H84.696z"/>
	<path fill="#FFFFFF" d="M173.633,123.506V6.542h44.064V20.15h-27.864v36.612h26.244V70.37h-26.244v39.528h27.864v13.608H173.633z"
		/>
	<path d="M226.928,103.581V89.648h16.2v9.558c0,8.424,3.131,12.636,9.396,12.636c7.128,0,10.692-4.48,10.692-13.446
		c0-5.291-0.81-9.396-2.43-12.312c-1.944-3.779-6.913-9.611-14.904-17.496c-6.374-6.371-10.854-11.608-13.446-15.714
		c-3.673-6.156-5.508-12.798-5.508-19.926c0-18.25,8.854-27.378,26.568-27.378c7.991,0,14.31,2.162,18.954,6.48
		c3.131,2.916,4.698,7.885,4.698,14.904V37.97H261.92v-9.234c0-7.019-3.025-10.53-9.072-10.53c-6.48,0-9.72,4.268-9.72,12.798
		c0,4.321,0.863,8.1,2.592,11.34c2.268,3.997,6.911,9.667,13.932,17.01c7.882,8.317,12.985,14.688,15.309,19.116
		c2.321,4.43,3.483,10.153,3.483,17.172c0,19.225-8.804,28.835-26.406,28.835C235.296,124.478,226.928,117.512,226.928,103.581z"/>
	<path d="M283.79,123.506V6.542h26.73c10.907,0,18.007,2.106,21.303,6.318c3.293,4.212,4.941,13.122,4.941,26.73
		s-1.647,22.518-4.941,26.73c-3.295,4.212-10.396,6.318-21.303,6.318h-10.53v50.868H283.79z M299.99,20.15v38.88h8.424
		c5.508,0,8.91-1.025,10.206-3.078c1.296-2.05,1.944-7.505,1.944-16.362c0-8.854-0.648-14.309-1.944-16.362
		c-1.296-2.05-4.698-3.078-10.206-3.078H299.99z"/>
	<path d="M325.749,123.506L351.506,6.542h18.793l23.814,116.964h-16.201l-5.346-29.808h-25.271l-5.346,29.808H325.749z
		 M359.93,23.714L349.725,80.09h20.574l-10.045-56.376H359.93z"/>
	<path d="M394.436,95.48v-59.13c0-20.519,9.125-30.78,27.378-30.78c15.658,0,23.49,7.075,23.49,21.222v11.664h-15.229v-8.1
		c0-8.1-3.133-12.15-9.396-12.15c-4.645,0-7.67,2.376-9.072,7.128c-0.647,2.377-0.972,6.698-0.972,12.96v57.348
		c0,10.801,3.185,16.2,9.558,16.2c6.587,0,9.882-4.643,9.882-13.932v-8.1h15.229v12.96c0,14.473-7.938,21.708-23.814,21.708
		c-9.828,0-16.903-2.592-21.222-7.775C396.38,112.167,394.436,105.094,394.436,95.48z"/>
	<path d="M448.38,123.506V6.542h44.063V20.15H464.58v36.612h26.244V70.37H464.58v39.528h27.863v13.608H448.38z"/>
</g>
<g>
</g>
<g>
</g>
<g>
</g>
<g>
</g>
<g>
</g>
<g>
</g>
<g>
</g>
<g>
</g>
<g>
</g>
<g>
</g>
<g>
</g>
<g>
</g>
<g>
</g>
<g>
</g>
<g>
</g>
<g>
</g>
</svg>
