<?xml version="1.0" encoding="utf-8"?>
<!-- Generator: Adobe Illustrator 16.0.0, SVG Export Plug-In . SVG Version: 6.00 Build 0)  -->
<!DOCTYPE svg PUBLIC "-//W3C//DTD SVG 1.1//EN" "http://www.w3.org/Graphics/SVG/1.1/DTD/svg11.dtd">
<svg version="1.1" id="Layer_1" xmlns="http://www.w3.org/2000/svg" xmlns:xlink="http://www.w3.org/1999/xlink" x="0px" y="0px"
	 width="456px" height="141px" viewBox="0 0 456 141" enable-background="new 0 0 456 141" xml:space="preserve">
<g>
</g>
<g>
	<defs>
		<filter id="Adobe_OpacityMaskFilter" filterUnits="userSpaceOnUse" x="-4.377" y="0.281" width="221" height="141">
			
				<feColorMatrix  type="matrix" values="-1 0 0 0 1  0 -1 0 0 1  0 0 -1 0 1  0 0 0 1 0" color-interpolation-filters="sRGB" result="source"/>
			<feFlood  style="flood-color:white;flood-opacity:1" result="back"/>
			<feBlend  in="source" in2="back" mode="normal"/>
		</filter>
	</defs>
	<mask maskUnits="userSpaceOnUse" x="-4.377" y="0.281" width="221" height="141" id="SVGID_1_">
		<g filter="url(#Adobe_OpacityMaskFilter)">
		</g>
	</mask>
	<rect x="-4.377" y="0.281" mask="url(#SVGID_1_)" width="221" height="141"/>
	<g>
		<path fill="#FFFFFF" d="M-0.804,31.127V19.091H47.91v12.036H30.717v91.411H16.389V31.127H-0.804z"/>
		<path fill="#FFFFFF" d="M57.007,122.538V19.091h14.328v103.446H57.007z"/>
		<path fill="#FFFFFF" d="M82.854,122.538V19.091h22.781l13.181,78.803h0.287l13.182-78.803h22.208v103.446h-13.468v-93.13
			l-14.8,93.13h-14.512l-16.25-93.13v93.13H82.854z"/>
		<path fill="#FFFFFF" d="M166.211,122.538V19.091h38.971v12.036h-24.644v32.38h23.211v12.035h-23.211v34.96h24.644v12.035H166.211z
			"/>
	</g>
	<g>
		<path d="M222.695,104.915V92.593h14.328v8.453c0,7.451,2.77,11.176,8.31,11.176c6.304,0,9.457-3.962,9.457-11.892
			c0-4.679-0.716-8.31-2.149-10.889c-1.719-3.342-6.114-8.5-13.181-15.474c-5.637-5.635-9.6-10.267-11.892-13.898
			c-3.249-5.445-4.872-11.319-4.872-17.623c0-16.141,7.831-24.214,23.498-24.214c7.067,0,12.655,1.912,16.763,5.731
			c2.77,2.579,4.155,6.974,4.155,13.182v9.743h-13.468v-8.167c0-6.208-2.675-9.313-8.023-9.313c-5.731,0-8.597,3.774-8.597,11.319
			c0,3.821,0.764,7.164,2.292,10.029c2.006,3.535,6.112,8.549,12.322,15.044c6.972,7.356,11.485,12.991,13.54,16.907
			c2.053,3.918,3.08,8.979,3.08,15.188c0,17.003-7.786,25.503-23.354,25.503C230.096,123.397,222.695,117.236,222.695,104.915z"/>
		<path d="M272.268,122.538V19.091h23.641c9.646,0,15.926,1.863,18.841,5.588c2.913,3.726,4.37,11.605,4.37,23.641
			c0,12.036-1.458,19.916-4.37,23.641c-2.915,3.725-9.194,5.587-18.841,5.587h-9.313v44.989H272.268z M286.596,31.127v34.386h7.451
			c4.871,0,7.88-0.907,9.026-2.722c1.146-1.813,1.719-6.638,1.719-14.471c0-7.831-0.573-12.655-1.719-14.471
			c-1.146-1.813-4.155-2.722-9.026-2.722H286.596z"/>
		<path d="M308.661,122.538l22.781-103.446h16.62l21.062,103.446h-14.328l-4.728-26.363h-22.351l-4.728,26.363H308.661z
			 M338.893,34.279l-9.026,49.86h18.196l-8.883-49.86H338.893z"/>
		<path d="M368.264,97.75V45.455c0-18.147,8.07-27.223,24.214-27.223c13.849,0,20.774,6.257,20.774,18.769v10.316h-13.468v-7.164
			c0-7.164-2.771-10.746-8.31-10.746c-4.108,0-6.784,2.102-8.024,6.304c-0.572,2.103-0.859,5.924-0.859,11.462v50.72
			c0,9.552,2.816,14.328,8.453,14.328c5.825,0,8.74-4.106,8.74-12.322v-7.164h13.468v11.462c0,12.801-7.021,19.199-21.062,19.199
			c-8.692,0-14.95-2.292-18.77-6.877C369.982,112.508,368.264,106.253,368.264,97.75z"/>
		<path d="M416.689,122.538V19.091h38.972v12.036h-24.644v32.38h23.211v12.035h-23.211v34.96h24.644v12.035H416.689z"/>
	</g>
</g>
<g>
</g>
<g>
</g>
<g>
</g>
<g>
</g>
<g>
</g>
<g>
</g>
<g>
</g>
<g>
</g>
<g>
</g>
<g>
</g>
<g>
</g>
<g>
</g>
<g>
</g>
<g>
</g>
<g>
</g>
<g>
</g>
</svg>
