<?xml version="1.0" encoding="utf-8"?>
<!-- Generator: Adobe Illustrator 16.0.0, SVG Export Plug-In . SVG Version: 6.00 Build 0)  -->
<!DOCTYPE svg PUBLIC "-//W3C//DTD SVG 1.1//EN" "http://www.w3.org/Graphics/SVG/1.1/DTD/svg11.dtd">
<svg version="1.1" id="Layer_1" xmlns="http://www.w3.org/2000/svg" xmlns:xlink="http://www.w3.org/1999/xlink" x="0px" y="0px"
	 width="494px" height="130px" viewBox="0 0 494 130" enable-background="new 0 0 494 130" xml:space="preserve">
<rect x="-4.113" y="-0.089" width="226" height="130"/>
<g>
	<path fill="#FFFFFF" d="M-0.073,6.515h53.41v13.598H34.43v103.393H18.783V20.113H-0.073V6.515z"/>
	<path fill="#FFFFFF" d="M60.854,6.515h15.647v116.991H60.854V6.515z"/>
	<path fill="#FFFFFF" d="M84.489,6.515h24.9l14.48,89.173h0.307L138.58,6.515h24.363v116.991h-14.701V18.057h-0.305l-16.054,105.45
		h-15.747l-17.59-105.45h-0.308v105.45H84.489V6.515z"/>
	<path fill="#FFFFFF" d="M173.383,6.515h42.651v13.598h-27.003v36.639h25.394v13.591h-25.394v39.566h27.003v13.598h-42.651V6.515z"
		/>
	<path d="M226.792,89.594h15.647v9.565c0,3.901,0.792,6.93,2.376,9.09c1.329,2.372,3.578,3.558,6.747,3.558
		c4.19,0,7.002-1.318,8.433-3.953c1.278-2.582,1.917-5.743,1.917-9.486c0-2.635-0.052-4.848-0.153-6.64
		c-0.306-1.844-0.995-3.794-2.065-5.85c-1.889-3.688-6.735-9.459-14.539-17.311c-5.152-5.059-9.438-10.355-12.855-15.89
		c-3.571-5.374-5.407-11.961-5.509-19.762c0-18.444,8.563-27.561,25.688-27.351c4.281,0,7.977,0.607,11.086,1.818
		c2.955,1.266,5.376,2.821,7.263,4.665c1.429,1.213,2.525,2.952,3.291,5.217c0.816,2.372,1.225,5.586,1.225,9.644v11.067h-14.698
		v-9.249c0-6.903-2.933-10.407-8.797-10.513c-6.38-0.105-9.517,4.167-9.411,12.815c0,1.952,0.204,3.771,0.613,5.458
		c0.307,1.74,0.996,3.639,2.07,5.695c1.993,3.903,6.438,9.626,13.337,17.167c7.511,7.911,12.467,14.239,14.87,18.985
		c2.356,4.748,3.455,10.522,3.296,17.325c0.475,18.987-8.022,28.584-25.492,28.795c-7.349,0-13.167-1.666-17.453-4.999
		c-4.593-3.385-6.889-8.701-6.889-15.949V89.594z"/>
	<path d="M283.553,6.515h25.929c10.433-0.105,17.389,2.003,20.867,6.327c3.122,4.536,4.631,13.447,4.526,26.734
		c0.105,13.183-1.407,22.041-4.536,26.576c-3.485,4.43-10.456,6.591-20.913,6.485H299.2v50.87h-15.647V6.515z M299.2,59.046h8.165
		c5.136,0.211,8.5-0.87,10.092-3.244c1.285-2.373,1.876-7.781,1.771-16.222c0.105-8.652-0.486-14.164-1.771-16.539
		c-0.719-1.266-1.875-2.11-3.467-2.532c-1.696-0.263-3.903-0.396-6.625-0.396H299.2V59.046z"/>
	<path d="M350.548,6.515h18.212l23.033,116.991h-15.687l-5.203-29.829h-24.41l-5.204,29.829h-15.61L350.548,6.515z M348.864,80.087
		h19.896l-9.718-56.493h-0.306L348.864,80.087z"/>
	<path d="M394.305,36.317c-0.106-8.537,1.678-15.757,5.354-21.661c1.989-2.793,4.692-5.005,8.109-6.64
		c3.467-1.634,7.802-2.451,13.004-2.451c15.252,0.316,22.824,7.379,22.719,21.186v11.7h-14.697v-8.143
		c0.104-7.851-2.934-11.882-9.114-12.094c-3.983,0-6.588,1.555-7.812,4.663c-1.382,3.163-2.021,8.301-1.915,15.415v57.309
		c0,6.588,0.944,10.962,2.834,13.122c1.788,2.16,3.932,3.188,6.434,3.083c6.178,0.105,9.369-4.559,9.574-13.992v-8.063h14.697
		v12.994c0.105,6.286-1.398,11.411-4.514,15.372c-3.468,4.12-9.638,6.231-18.511,6.338c-9.689-0.106-16.473-2.694-20.348-7.768
		c-3.982-5.073-5.92-12.155-5.813-21.244V36.317z"/>
	<path d="M448.139,6.515h42.65v13.598h-27.004v36.639h25.395v13.591h-25.395v39.566h27.004v13.598h-42.65V6.515z"/>
</g>
<g>
</g>
<g>
</g>
<g>
</g>
<g>
</g>
<g>
</g>
<g>
</g>
<g>
</g>
<g>
</g>
<g>
</g>
<g>
</g>
<g>
</g>
<g>
</g>
<g>
</g>
<g>
</g>
<g>
</g>
<g>
</g>
</svg>
