<?xml version="1.0" encoding="utf-8"?>
<!-- Generator: Adobe Illustrator 16.0.0, SVG Export Plug-In . SVG Version: 6.00 Build 0)  -->
<!DOCTYPE svg PUBLIC "-//W3C//DTD SVG 1.1//EN" "http://www.w3.org/Graphics/SVG/1.1/DTD/svg11.dtd">
<svg version="1.1" id="Layer_1" xmlns="http://www.w3.org/2000/svg" xmlns:xlink="http://www.w3.org/1999/xlink" x="0px" y="0px"
	 width="446px" height="133px" viewBox="0 0 446 133" enable-background="new 0 0 446 133" xml:space="preserve">
<g>
</g>
<g>
	<rect x="-4.065" y="0.537" width="215" height="133"/>
	<g>
		<path fill="#FFFFFF" d="M-0.142,30.002v-11.34h45.9v11.34h-16.2v86.13h-13.5v-86.13H-0.142z"/>
		<path fill="#FFFFFF" d="M54.329,116.132v-97.47h13.5v97.47H54.329z"/>
		<path fill="#FFFFFF" d="M78.683,116.132v-97.47h21.465l12.42,74.25h0.27l12.42-74.25h20.925v97.47h-12.69v-87.75l-13.945,87.75
			h-13.673l-15.312-87.75v87.75H78.683z"/>
		<path fill="#FFFFFF" d="M157.225,116.132v-97.47h36.72v11.34h-23.22v30.51h21.87v11.34h-21.87v32.94h23.22v11.34H157.225z"/>
	</g>
	<g>
		<path d="M210.705,103.297v-12.47h14.5v8.555c0,7.54,2.803,11.31,8.41,11.31c6.38,0,9.57-4.01,9.57-12.035
			c0-4.735-0.725-8.41-2.175-11.02c-1.74-3.382-6.188-8.603-13.34-15.66c-5.705-5.703-9.715-10.39-12.035-14.065
			c-3.288-5.51-4.93-11.455-4.93-17.835c0-16.335,7.925-24.505,23.78-24.505c7.153,0,12.808,1.935,16.965,5.8
			c2.802,2.61,4.205,7.057,4.205,13.34v9.86h-13.63v-8.265c0-6.282-2.707-9.425-8.12-9.425c-5.8,0-8.7,3.82-8.7,11.455
			c0,3.867,0.772,7.25,2.32,10.15c2.03,3.578,6.186,8.652,12.47,15.225c7.055,7.445,11.623,13.147,13.703,17.11
			c2.077,3.965,3.117,9.087,3.117,15.37c0,17.208-7.88,25.81-23.635,25.81C218.195,122.002,210.705,115.767,210.705,103.297z"/>
		<path d="M260.874,121.132V16.442h23.925c9.763,0,16.118,1.885,19.067,5.655c2.948,3.77,4.422,11.745,4.422,23.925
			c0,12.18-1.475,20.155-4.422,23.925c-2.95,3.77-9.305,5.655-19.067,5.655h-9.425v45.53H260.874z M275.374,28.623v34.8h7.54
			c4.93,0,7.975-0.917,9.135-2.755c1.16-1.835,1.74-6.718,1.74-14.645c0-7.925-0.58-12.808-1.74-14.645
			c-1.16-1.835-4.205-2.755-9.135-2.755H275.374z"/>
		<path d="M297.705,121.132l23.055-104.69h16.82l21.315,104.69h-14.5l-4.785-26.68h-22.62l-4.785,26.68H297.705z M328.299,31.812
			l-9.135,50.46h18.415l-8.99-50.46H328.299z"/>
		<path d="M358.023,96.047V43.123c0-18.365,8.168-27.55,24.506-27.55c14.015,0,21.024,6.333,21.024,18.995v10.44h-13.63v-7.25
			c0-7.25-2.805-10.875-8.41-10.875c-4.157,0-6.864,2.127-8.12,6.38c-0.58,2.127-0.87,5.995-0.87,11.6v51.33
			c0,9.667,2.851,14.5,8.556,14.5c5.895,0,8.845-4.155,8.845-12.47v-7.25h13.63v11.6c0,12.955-7.104,19.43-21.314,19.43
			c-8.798,0-15.13-2.32-18.995-6.96C359.764,110.982,358.023,104.652,358.023,96.047z"/>
		<path d="M407.032,121.132V16.442h39.439v12.18h-24.939v32.77h23.49v12.18h-23.49v35.38h24.939v12.18H407.032z"/>
	</g>
</g>
<g>
</g>
<g>
</g>
<g>
</g>
<g>
</g>
<g>
</g>
<g>
</g>
<g>
</g>
<g>
</g>
<g>
</g>
<g>
</g>
<g>
</g>
<g>
</g>
<g>
</g>
<g>
</g>
<g>
</g>
<g>
</g>
</svg>
